<svg width="75" height="77" viewBox="0 0 75 77" fill="none" xmlns="http://www.w3.org/2000/svg">
<rect width="33" height="15" transform="translate(32 66) rotate(-90)" fill="#F3A225"/>
<rect width="28.1279" height="11.0807" transform="translate(39.2754 25.1426) rotate(-45)" fill="#F3A225"/>
<rect width="28.1279" height="11.0807" transform="matrix(-0.707107 -0.707107 -0.707107 0.707107 39.7246 25.1426)" fill="#F3A225"/>
<path d="M39.4997 66L46.9997 65.9997L39.4994 73.5L31.9997 66.0003L39.4997 66Z" fill="#F3A225"/>
<path d="M39.4997 12.5L46.9997 12.4997L39.4994 20L31.9997 12.5003L39.4997 12.5Z" fill="#F3A225"/>
<path d="M70.5 9.5L66 14L66 5L75 5L70.5 9.5Z" fill="#F3A225"/>
<path d="M8.5 9.5L13 14L13 5L4 5L8.5 9.5Z" fill="#F3A225"/>
</svg>
